<svg width="76" height="76" viewBox="0 0 76 76" fill="none" xmlns="http://www.w3.org/2000/svg">
<g filter="url(#filter0_d_360_5009)">
<circle cx="38" cy="35" r="23" fill="#8BC356"/>
</g>
<g clip-path="url(#clip0_360_5009)">
<path d="M41.7986 42.7248C41.8377 42.7314 41.8766 42.7346 41.915 42.7346C42.2525 42.7346 42.5504 42.4908 42.6077 42.1469L43.3109 37.9281C43.3747 37.5451 43.1159 37.1828 42.7329 37.119C42.3498 37.0549 41.9876 37.3139 41.9237 37.6969L41.2206 41.9157C41.1568 42.2988 41.4155 42.6611 41.7986 42.7248Z" fill="white"/>
<path d="M33.4394 42.1468C33.4967 42.4907 33.7945 42.7345 34.1321 42.7345C34.1705 42.7345 34.2094 42.7314 34.2485 42.7248C34.6316 42.661 34.8903 42.2987 34.8265 41.9156L34.1234 37.6969C34.0595 37.3138 33.6973 37.0551 33.3142 37.1189C32.9311 37.1828 32.6724 37.545 32.7362 37.9281L33.4394 42.1468Z" fill="white"/>
<path d="M49.2969 31.4844H46.8223L41.4084 24.717C41.1659 24.4139 40.7234 24.3646 40.4202 24.6072C40.1169 24.8498 40.0677 25.2923 40.3104 25.5955L45.0215 31.4844H30.9785L35.6897 25.5955C35.9323 25.2923 35.8831 24.8498 35.5799 24.6072C35.2766 24.3646 34.8342 24.4138 34.5916 24.717L29.1777 31.4844H26.7031C26.3148 31.4844 26 31.7992 26 32.1875V35C26 35.3883 26.3148 35.7031 26.7031 35.7031H27.579L30.2458 45.0369C30.332 45.3388 30.608 45.5469 30.9219 45.5469H45.0781C45.392 45.5469 45.668 45.3388 45.7542 45.0369L48.421 35.7031H49.2969C49.6852 35.7031 50 35.3883 50 35V32.1875C50 31.7992 49.6852 31.4844 49.2969 31.4844ZM44.5478 44.1406H31.4522L29.0415 35.7031H46.9585L44.5478 44.1406ZM48.5938 34.2969C46.1851 34.2969 29.6881 34.2969 27.4062 34.2969V32.8906H48.5938V34.2969Z" fill="white"/>
<path d="M38 42.7343C38.3883 42.7343 38.7031 42.4194 38.7031 42.0311V37.8124C38.7031 37.4241 38.3883 37.1093 38 37.1093C37.6117 37.1093 37.2969 37.4241 37.2969 37.8124V42.0311C37.2969 42.4195 37.6117 42.7343 38 42.7343Z" fill="white"/>
</g>
<defs>
<filter id="filter0_d_360_5009" x="0" y="0" width="76" height="76" filterUnits="userSpaceOnUse" color-interpolation-filters="sRGB">
<feFlood flood-opacity="0" result="BackgroundImageFix"/>
<feColorMatrix in="SourceAlpha" type="matrix" values="0 0 0 0 0 0 0 0 0 0 0 0 0 0 0 0 0 0 127 0" result="hardAlpha"/>
<feOffset dy="3"/>
<feGaussianBlur stdDeviation="7.5"/>
<feComposite in2="hardAlpha" operator="out"/>
<feColorMatrix type="matrix" values="0 0 0 0 0.129412 0 0 0 0 0.176471 0 0 0 0 0.333333 0 0 0 0.15 0"/>
<feBlend mode="normal" in2="BackgroundImageFix" result="effect1_dropShadow_360_5009"/>
<feBlend mode="normal" in="SourceGraphic" in2="effect1_dropShadow_360_5009" result="shape"/>
</filter>
<clipPath id="clip0_360_5009">
<rect width="24" height="24" fill="white" transform="translate(26 23)"/>
</clipPath>
</defs>
</svg>
