<svg width="81" height="81" viewBox="0 0 81 81" fill="none" xmlns="http://www.w3.org/2000/svg">
<g filter="url(#filter0_d_435_658)">
<circle cx="40.5" cy="37.5" r="25.5" fill="#31BEF4"/>
</g>
<path d="M40.4987 23C35.1686 23 30.832 27.3366 30.832 32.6667C30.832 34.2668 31.2321 35.8533 31.9926 37.2605L39.9701 51.6885C40.0763 51.8808 40.2787 52 40.4987 52C40.7188 52 40.9211 51.8808 41.0273 51.6885L49.0078 37.2557C49.7654 35.8533 50.1654 34.2667 50.1654 32.6666C50.1654 27.3366 45.8288 23 40.4987 23ZM40.4987 37.5C37.8337 37.5 35.6654 35.3317 35.6654 32.6667C35.6654 30.0016 37.8337 27.8334 40.4987 27.8334C43.1638 27.8334 45.332 30.0016 45.332 32.6667C45.332 35.3317 43.1638 37.5 40.4987 37.5Z" fill="white"/>
<defs>
<filter id="filter0_d_435_658" x="0" y="0" width="81" height="81" filterUnits="userSpaceOnUse" color-interpolation-filters="sRGB">
<feFlood flood-opacity="0" result="BackgroundImageFix"/>
<feColorMatrix in="SourceAlpha" type="matrix" values="0 0 0 0 0 0 0 0 0 0 0 0 0 0 0 0 0 0 127 0" result="hardAlpha"/>
<feOffset dy="3"/>
<feGaussianBlur stdDeviation="7.5"/>
<feComposite in2="hardAlpha" operator="out"/>
<feColorMatrix type="matrix" values="0 0 0 0 0.192157 0 0 0 0 0.745098 0 0 0 0 0.956863 0 0 0 0.5 0"/>
<feBlend mode="normal" in2="BackgroundImageFix" result="effect1_dropShadow_435_658"/>
<feBlend mode="normal" in="SourceGraphic" in2="effect1_dropShadow_435_658" result="shape"/>
</filter>
</defs>
</svg>
