<svg width="120" height="109" viewBox="0 0 120 109" fill="none" xmlns="http://www.w3.org/2000/svg">
<g filter="url(#filter0_d_511_2)">
<path fill-rule="evenodd" clip-rule="evenodd" d="M30 15C24.4772 15 20 19.4772 20 25V42.3892C22.509 42.7842 24.4606 45.8171 24.4606 49.5C24.4606 53.1829 22.509 56.2159 20 56.6109V74C20 79.5229 24.4772 84 30 84H90C95.5229 84 100 79.5228 100 74V25C100 19.4772 95.5229 15 90 15H30Z" fill="white"/>
</g>
<path d="M66.0421 70.7838C65.9589 70.7839 65.8766 70.7668 65.8002 70.7338C65.7239 70.7007 65.6551 70.6524 65.5982 70.5917L62.6793 67.4788C62.5735 67.3661 62.5146 67.2174 62.5145 67.0628V65.5869C62.5145 65.4989 62.5337 65.4119 62.5707 65.332C62.6076 65.2521 62.6615 65.1812 62.7285 65.1242L63.7623 64.2412L62.8106 63.2311C62.7065 63.1207 62.6474 62.9752 62.6451 62.8234C62.6427 62.6716 62.6972 62.5244 62.7979 62.4108L63.7994 61.2791L62.9547 60.37C62.853 60.2606 62.795 60.1175 62.792 59.9681C62.789 59.8187 62.8411 59.6734 62.9383 59.56L63.8402 58.5086L62.7352 57.5964C62.666 57.5393 62.6102 57.4676 62.5719 57.3865C62.5337 57.3053 62.5138 57.2167 62.5139 57.1269V53.4728C60.9768 52.6909 59.75 51.4113 59.0335 49.8427C58.317 48.2741 58.153 46.5091 58.5683 44.8353C58.9837 43.1616 59.9538 41.6779 61.3205 40.6263C62.6872 39.5746 64.3699 39.017 66.0942 39.0444C67.8185 39.0718 69.4827 39.6825 70.8153 40.7771C72.1479 41.8716 73.0705 43.3853 73.4324 45.0714C73.7944 46.7575 73.5745 48.5164 72.8085 50.0615C72.0425 51.6066 70.7757 52.8465 69.2146 53.5792V66.9157C69.2146 67.052 69.1687 67.1843 69.0845 67.2915L66.5201 70.5515C66.4658 70.6208 66.3971 70.6774 66.3188 70.7175C66.2404 70.7576 66.1544 70.7802 66.0664 70.7838H66.0421ZM63.7313 66.822L66.0026 69.2435L67.9996 66.7052V53.1809C67.9996 53.0599 68.0357 52.9415 68.1033 52.8411C68.1709 52.7407 68.2669 52.6627 68.3791 52.6172C69.7529 52.0625 70.8926 51.05 71.6053 49.7511C72.318 48.4523 72.5598 46.947 72.2896 45.4903C72.0195 44.0336 71.254 42.7151 70.123 41.7582C68.992 40.8012 67.5649 40.2647 66.0836 40.2396C64.6023 40.2144 63.1578 40.7021 61.9949 41.6201C60.832 42.538 60.0222 43.8297 59.7027 45.2764C59.3832 46.7231 59.5737 48.2357 60.2418 49.5581C60.91 50.8804 62.0147 51.9311 63.3689 52.5321C63.4771 52.5793 63.5692 52.657 63.634 52.7557C63.6988 52.8544 63.7334 52.9698 63.7337 53.0879V56.8417L65.0935 57.9649C65.1558 58.0163 65.2073 58.0797 65.2448 58.1512C65.2824 58.2228 65.3053 58.3011 65.3123 58.3816C65.3193 58.4621 65.3101 58.5432 65.2854 58.6201C65.2607 58.697 65.2208 58.7683 65.1683 58.8296L64.2166 59.9394L65.0679 60.8552C65.1707 60.9658 65.2287 61.1106 65.2306 61.2616C65.2325 61.4125 65.1782 61.5588 65.0783 61.6719L64.0791 62.8012L65.0886 63.8727C65.145 63.9327 65.1886 64.0035 65.2168 64.0809C65.245 64.1582 65.2572 64.2405 65.2527 64.3228C65.2481 64.405 65.2269 64.4854 65.1904 64.5592C65.1538 64.633 65.1026 64.6986 65.0399 64.752L63.7325 65.8679L63.7313 66.822Z" fill="#212D55"/>
<path d="M68.6042 53.7854C68.4436 53.7854 68.2894 53.7218 68.1755 53.6085C68.0616 53.4953 67.9971 53.3416 67.9961 53.1809V53.1736C67.9968 53.0535 68.0331 52.9363 68.1003 52.8368C68.1676 52.7372 68.2628 52.6599 68.374 52.6144C68.4852 52.5689 68.6073 52.5574 68.7251 52.5813C68.8428 52.6052 68.9508 52.6634 69.0355 52.7486C69.1202 52.8337 69.1777 52.9421 69.2009 53.06C69.2241 53.1778 69.2118 53.2999 69.1657 53.4108C69.1195 53.5217 69.0416 53.6165 68.9417 53.6831C68.8417 53.7498 68.7243 53.7854 68.6042 53.7854Z" fill="#212D55"/>
<path d="M65.9697 47.8028C65.3816 47.8028 64.8067 47.6284 64.3177 47.3016C63.8287 46.9749 63.4475 46.5104 63.2224 45.9671C62.9974 45.4237 62.9385 44.8258 63.0532 44.249C63.168 43.6722 63.4512 43.1423 63.8671 42.7264C64.2829 42.3106 64.8128 42.0273 65.3896 41.9126C65.9664 41.7979 66.5643 41.8568 67.1077 42.0818C67.6511 42.3069 68.1155 42.688 68.4422 43.177C68.769 43.6661 68.9434 44.241 68.9434 44.8291C68.9426 45.6175 68.629 46.3734 68.0715 46.9309C67.514 47.4884 66.7582 47.802 65.9697 47.8028ZM65.9697 43.0717C65.6222 43.0717 65.2824 43.1748 64.9934 43.3679C64.7044 43.561 64.4791 43.8354 64.3461 44.1566C64.2131 44.4777 64.1783 44.8311 64.2461 45.172C64.3139 45.5129 64.4813 45.826 64.7271 46.0718C64.9728 46.3176 65.286 46.485 65.6269 46.5528C65.9678 46.6206 66.3212 46.5858 66.6423 46.4528C66.9634 46.3198 67.2379 46.0945 67.431 45.8055C67.6241 45.5165 67.7272 45.1767 67.7272 44.8291C67.7267 44.3632 67.5414 43.9164 67.2119 43.587C66.8824 43.2575 66.4357 43.0722 65.9697 43.0717Z" fill="#212D55"/>
<path d="M46.9068 66.9831C46.7678 66.9832 46.633 66.9357 46.5248 66.8485C46.4166 66.7613 46.3415 66.6397 46.3121 66.5039L45.4084 62.3311C45.3754 62.1793 45.4018 62.0207 45.482 61.8877L46.247 60.6211C46.2925 60.5457 46.3537 60.4811 46.4266 60.4318C46.4995 60.3825 46.5822 60.3495 46.669 60.3352L48.0068 60.1145L47.7156 58.7529C47.6839 58.605 47.7085 58.4505 47.7847 58.3197C47.8608 58.1889 47.9829 58.0912 48.1273 58.0457L49.5654 57.5933L49.3137 56.3771C49.2833 56.2308 49.3079 56.0785 49.3827 55.9491C49.4576 55.8198 49.5774 55.7226 49.7193 55.6759L51.0304 55.2442L50.556 53.8905C50.5264 53.8062 50.5157 53.7164 50.5248 53.6275C50.5338 53.5385 50.5623 53.4527 50.6083 53.3761L52.4886 50.2443C51.5768 48.7895 51.1821 47.0697 51.3684 45.3628C51.5546 43.656 52.311 42.0618 53.5152 40.8379C54.7194 39.6141 56.3011 38.832 58.0047 38.618C59.7083 38.4041 61.4342 38.7708 62.9037 39.659L62.9906 39.7125C63.066 39.7581 63.1384 39.8025 63.2114 39.8505C63.278 39.8947 63.3352 39.9515 63.3799 40.0178C63.4245 40.0841 63.4556 40.1585 63.4715 40.2369C63.4874 40.3152 63.4877 40.3959 63.4723 40.4743C63.457 40.5527 63.4264 40.6274 63.3823 40.694C63.3381 40.7606 63.2812 40.8178 63.215 40.8624C63.1487 40.9071 63.0742 40.9382 62.9959 40.9541C62.9176 40.97 62.8369 40.9702 62.7585 40.9549C62.6801 40.9396 62.6054 40.909 62.5388 40.8648C62.478 40.8259 62.4208 40.79 62.3564 40.7529L62.267 40.6982C61.0067 39.9401 59.5242 39.6379 58.0677 39.8423C56.6112 40.0467 55.2691 40.7452 54.2662 41.8209C53.2632 42.8966 52.6602 44.2843 52.5581 45.7515C52.456 47.2187 52.8611 48.6764 53.7054 49.8807C53.773 49.9769 53.8112 50.0907 53.8154 50.2083C53.8196 50.3258 53.7897 50.442 53.7291 50.5429L51.8002 53.7567L52.3858 55.426C52.4126 55.5023 52.4239 55.5832 52.419 55.6639C52.4142 55.7446 52.3933 55.8235 52.3575 55.8961C52.3218 55.9686 52.272 56.0333 52.2109 56.0863C52.1499 56.1394 52.0789 56.1797 52.0021 56.205L50.6175 56.6611L50.8704 57.8834C50.9009 58.0309 50.8755 58.1844 50.7992 58.3143C50.7229 58.4442 50.6012 58.5411 50.4575 58.5863L49.0224 59.0382L49.3319 60.4824C49.3495 60.563 49.3505 60.6464 49.3349 60.7274C49.3192 60.8085 49.2872 60.8855 49.2408 60.9537C49.1945 61.022 49.1347 61.0801 49.0652 61.1245C48.9956 61.169 48.9177 61.1988 48.8363 61.2121L47.1433 61.4913L46.6483 62.311L47.3513 65.554L50.3718 64.4108L57.3389 52.8215C57.4008 52.7174 57.4926 52.6343 57.6024 52.583C57.7121 52.5317 57.8347 52.5146 57.9543 52.5338C59.2611 52.7427 60.6004 52.5381 61.7854 51.9488C61.857 51.9126 61.935 51.8909 62.015 51.8849C62.095 51.879 62.1754 51.889 62.2516 51.9142C62.3277 51.9395 62.3981 51.9796 62.4587 52.0322C62.5193 52.0848 62.5689 52.1489 62.6046 52.2208C62.6403 52.2926 62.6614 52.3708 62.6668 52.4509C62.6721 52.531 62.6615 52.6113 62.6357 52.6872C62.6099 52.7632 62.5692 52.8333 62.5162 52.8935C62.4631 52.9537 62.3987 53.0028 62.3266 53.038C61.0427 53.6767 59.6037 53.9369 58.1775 53.7884L51.3058 65.2208C51.2358 65.3373 51.1288 65.427 51.0018 65.4756L47.1239 66.9436C47.0546 66.9702 46.981 66.9836 46.9068 66.9831Z" fill="#212D55"/>
<path d="M57.863 53.7416C57.7557 53.7411 57.6504 53.7122 57.5578 53.6578C57.4653 53.6034 57.3888 53.5255 57.3361 53.432C57.2834 53.3385 57.2564 53.2327 57.2579 53.1254C57.2593 53.018 57.2891 52.913 57.3443 52.8209L57.3486 52.8142C57.3901 52.746 57.4446 52.6866 57.5091 52.6394C57.5736 52.5923 57.6467 52.5583 57.7243 52.5394C57.802 52.5205 57.8825 52.5171 57.9615 52.5294C58.0404 52.5416 58.1162 52.5693 58.1844 52.6108C58.2526 52.6523 58.312 52.7069 58.3592 52.7714C58.4063 52.8359 58.4403 52.909 58.4592 52.9866C58.4781 53.0642 58.4815 53.1448 58.4693 53.2237C58.457 53.3027 58.4293 53.3784 58.3878 53.4467C58.3329 53.5367 58.2558 53.611 58.1639 53.6627C58.072 53.7143 57.9684 53.7415 57.863 53.7416Z" fill="#212D55"/>
<path d="M68.2425 44.7817C68.1058 44.7832 67.9725 44.7386 67.8643 44.6551C67.756 44.5716 67.679 44.4541 67.6458 44.3214C67.6125 44.1888 67.6249 44.0488 67.681 43.9241C67.7371 43.7994 67.8336 43.6973 67.9549 43.6342C69.1538 42.8201 70.1008 41.6867 70.6887 40.3622C71.2766 39.0377 71.482 37.5751 71.2815 36.1399C71.081 34.7047 70.4827 33.3544 69.5543 32.2417C68.6259 31.129 67.4046 30.2985 66.0285 29.8442C64.6525 29.3899 63.1767 29.3299 61.7683 29.6711C60.36 30.0123 59.0752 30.7409 58.0596 31.7746C57.044 32.8083 56.3381 34.1057 56.0219 35.5198C55.7056 36.934 55.7916 38.4085 56.2701 39.7763C56.3003 39.8523 56.3148 39.9336 56.3128 40.0154C56.3108 40.0972 56.2924 40.1777 56.2586 40.2521C56.2248 40.3266 56.1763 40.3935 56.116 40.4488C56.0557 40.5041 55.9849 40.5466 55.9078 40.5739C55.8308 40.6012 55.7489 40.6127 55.6673 40.6076C55.5857 40.6026 55.5059 40.5811 55.4328 40.5445C55.3596 40.5079 55.2946 40.4569 55.2417 40.3946C55.1887 40.3323 55.1488 40.26 55.1244 40.1819C54.5675 38.5957 54.4669 36.8851 54.834 35.2445C55.2011 33.6039 56.0212 32.0993 57.201 30.9017C58.3808 29.7042 59.873 28.8617 61.5079 28.4701C63.1428 28.0786 64.8548 28.1537 66.4491 28.6868C68.0435 29.22 69.4562 30.1899 70.5267 31.4862C71.5971 32.7824 72.2824 34.3531 72.5044 36.0195C72.7265 37.6859 72.4765 39.3812 71.7828 40.9125C71.0892 42.4439 69.9797 43.7498 68.5806 44.6819C68.4804 44.748 68.3626 44.7827 68.2425 44.7817Z" fill="#212D55"/>
<defs>
<filter id="filter0_d_511_2" x="0" y="0" width="120" height="109" filterUnits="userSpaceOnUse" color-interpolation-filters="sRGB">
<feFlood flood-opacity="0" result="BackgroundImageFix"/>
<feColorMatrix in="SourceAlpha" type="matrix" values="0 0 0 0 0 0 0 0 0 0 0 0 0 0 0 0 0 0 127 0" result="hardAlpha"/>
<feOffset dy="5"/>
<feGaussianBlur stdDeviation="10"/>
<feComposite in2="hardAlpha" operator="out"/>
<feColorMatrix type="matrix" values="0 0 0 0 0.129412 0 0 0 0 0.176471 0 0 0 0 0.333333 0 0 0 0.2 0"/>
<feBlend mode="normal" in2="BackgroundImageFix" result="effect1_dropShadow_511_2"/>
<feBlend mode="normal" in="SourceGraphic" in2="effect1_dropShadow_511_2" result="shape"/>
</filter>
</defs>
</svg>
